<svg width="65" height="49" viewBox="0 0 65 49" fill="none" xmlns="http://www.w3.org/2000/svg">
<path d="M41.4453 3.15737C41.4453 1.56516 40.1546 0.274414 38.5624 0.274414H22.4178C20.8256 0.274414 19.5348 1.56516 19.5348 3.15737V17.9113C19.5348 18.9453 20.7909 19.4568 21.5132 18.7168L24.5965 15.5583C25.139 15.0026 25.8828 14.6892 26.6595 14.6892H38.5624C40.1546 14.6892 41.4453 13.3985 41.4453 11.8062V3.15737Z" fill="#06FCF9"/>
<path d="M46.3477 7.77358C46.3477 6.18137 45.0569 4.89062 43.4647 4.89062H27.3201C25.7279 4.89062 24.4372 6.18137 24.4372 7.77358V22.5275C24.4372 23.5616 25.6932 24.073 26.4155 23.333L29.4988 20.1745C30.0413 19.6188 30.7851 19.3054 31.5618 19.3054H43.4647C45.0569 19.3054 46.3477 18.0147 46.3477 16.4225V7.77358Z" fill="#FD7B1E"/>
<path d="M44.0391 5.75838C44.0391 3.84772 42.4902 2.29883 40.5795 2.29883H25.5881C23.6775 2.29883 22.1286 3.84772 22.1286 5.75838V19.9357C22.1286 20.9698 23.3846 21.4812 24.107 20.7412L27.1902 17.5827C27.7327 17.027 28.4766 16.7136 29.2532 16.7136H40.5795C42.4902 16.7136 44.0391 15.1647 44.0391 13.2541V5.75838Z" fill="black"/>
<path d="M42.0234 6.61496C42.0234 5.34119 40.9908 4.30859 39.7171 4.30859L26.4555 4.30859C25.1817 4.30859 24.1491 5.34119 24.1491 6.61496V16.1825C24.1491 16.9348 25.0431 17.3284 25.598 16.8205L26.867 15.6588C27.3844 15.1852 28.0567 14.9165 28.758 14.9029L39.7615 14.6908C41.0177 14.6665 42.0234 13.6413 42.0234 12.3848V6.61496Z" fill="white"/>
<rect x="31.0664" y="6.61914" width="2.59466" height="5.47762" rx="0.864887" fill="black"/>
<rect x="36.832" y="6.61914" width="2.59466" height="5.47762" rx="0.864887" fill="black"/>
<path d="M6.26072 43.168L5.9297 41.4183H3.43912L3.1081 43.168H0.964308L3.09233 32.1338H6.3553L8.37298 43.168H6.26072ZM4.65288 34.183L4.03812 37.8558L3.69133 39.7316H5.66172L5.29917 37.8558L4.68441 34.183H4.65288ZM10.0003 35.113H13.4839V36.7681H11.0249L12.5224 38.9907C13.1949 39.947 13.568 40.6038 13.6416 40.9611C13.6836 41.1293 13.7046 41.3027 13.7046 41.4813C13.7046 42.2274 13.4261 42.7897 12.8692 43.168H8.84957V41.5128H11.7342L10.0476 39.038C9.97401 38.9224 9.85841 38.7595 9.70078 38.5494C9.55366 38.3392 9.43806 38.1711 9.35399 38.0449C9.26992 37.9083 9.21212 37.8085 9.1806 37.7454C9.14907 37.6824 9.10704 37.6036 9.05449 37.509C9.00195 37.4039 8.96517 37.3146 8.94415 37.241C8.90212 37.0414 8.8811 36.8785 8.8811 36.7524C8.8811 35.9852 9.25416 35.4388 10.0003 35.113ZM14.7231 43.168V32.1338H16.8196V37.9819H17.0402L18.522 35.113H20.5712L18.7111 38.6282L20.587 43.168H18.5062L17.056 39.637H16.8196V43.168H14.7231ZM25.5331 38.1238H25.4701H25.5331L26.3686 34.6716L27.0464 32.1338H29.0168L29.7261 43.168H27.6612L27.3617 37.1464H27.2828L26.1479 41.5917H24.8553L23.7204 37.1464H23.6416L23.3421 43.168H21.2771L21.9864 32.1338H23.9568L24.6346 34.6716L25.4701 38.1238H25.5331ZM34.7161 39.5267H33.0295C32.8088 39.7999 32.6985 40.1414 32.6985 40.5513C32.6985 40.9611 32.8141 41.2816 33.0453 41.5128H34.7161V39.5267ZM31.3271 35.113H35.2363C35.8669 35.4913 36.282 35.9274 36.4816 36.4213C36.6813 36.9047 36.7811 37.5668 36.7811 38.4075V40.772C36.7811 41.6442 36.8021 42.4429 36.8442 43.168H35.0472L34.7634 42.6005C34.3536 42.9788 33.7756 43.168 33.0295 43.168H32.0364C31.1432 42.5795 30.6965 41.7335 30.6965 40.6301C30.6965 39.5162 31.1537 38.6387 32.0679 37.9977H33.5497C33.9595 37.9977 34.3431 38.1238 34.7004 38.376V37.5878C34.7004 37.178 34.5217 36.9047 34.1644 36.7681H31.3271V35.113ZM41.6363 35.113H43.3072C43.7696 35.7015 44.0848 36.29 44.253 36.8785C44.4211 37.467 44.5052 38.2026 44.5052 39.0853V43.168H42.4087V38.9277C42.4087 37.9294 42.2721 37.2095 41.9988 36.7681H40.2334V43.168H38.1369V35.113H39.7762L40.06 35.6805C40.2912 35.4703 40.5066 35.3232 40.7063 35.2391C40.9164 35.155 41.2264 35.113 41.6363 35.113ZM45.7556 38.7385V35.113H47.8521V38.7543C47.8521 39.6686 48.036 40.4304 48.4038 41.0399H49.3339C49.6807 40.4409 49.8541 39.6791 49.8541 38.7543V35.113H51.9506V38.6282C51.9506 39.4163 51.8455 40.1099 51.6353 40.7089C51.4356 41.3079 51.1046 41.9857 50.6422 42.7424L49.5861 44.4605C49.3969 44.7863 49.1973 45.028 48.9871 45.1857C48.7769 45.3433 48.5037 45.4589 48.1674 45.5324H45.6768V43.8773H47.3792C47.5999 43.8143 47.7838 43.7039 47.931 43.5463C48.0781 43.3887 48.2305 43.1627 48.3881 42.8685L48.4827 42.6951H47.395C46.8906 42.2852 46.4913 41.7335 46.197 41.0399C45.9028 40.3359 45.7556 39.5687 45.7556 38.7385ZM58.0297 43.168L57.6987 41.4183H55.2081L54.8771 43.168H52.7333L54.8613 32.1338H58.1243L60.142 43.168H58.0297ZM56.4219 34.183L55.8071 37.8558L55.4603 39.7316H57.4307L57.0682 37.8558L56.4534 34.183H56.4219ZM61.0599 43.168V32.1338H63.2195V43.168H61.0599Z" fill="black"/>
</svg>
