<?xml version="1.0" standalone="no"?><!DOCTYPE svg PUBLIC "-//W3C//DTD SVG 1.1//EN" "http://www.w3.org/Graphics/SVG/1.1/DTD/svg11.dtd"><svg t="1739343290984" class="icon" viewBox="0 0 1024 1024" version="1.1" xmlns="http://www.w3.org/2000/svg" p-id="4764" width="64" height="64" xmlns:xlink="http://www.w3.org/1999/xlink"><path d="M969.632 224.9216c-9.8304-4.9152-14.0784 4.4544-19.8192 9.216-1.9584 1.536-3.624 3.5328-5.2992 5.376-14.3616 15.6672-31.1376 25.9584-53.088 24.7296-32.0592-1.8432-59.4384 8.448-83.6304 33.4848-5.1456-30.8736-22.2336-49.3056-48.2544-61.1328-13.6272-6.144-27.3744-12.288-36.9216-25.6512-6.6384-9.5232-8.4432-20.1216-11.784-30.5664-2.112-6.2976-4.224-12.7536-11.328-13.824-7.7376-1.2288-10.752 5.376-13.7856 10.9056-12.096 22.5792-16.8 47.4624-16.32 72.6528 1.032 56.6784 24.4992 101.8368 71.0784 133.944 5.2992 3.6864 6.6624 7.3728 4.992 12.7488-3.168 11.0544-6.9696 21.8064-10.2912 32.8656-2.112 7.0656-5.28 8.6016-12.7152 5.5296-25.5504-10.9056-47.6304-27.0336-67.152-46.536-33.12-32.7216-63.0816-68.8176-100.416-97.08a444.312 444.312 0 0 0-26.6352-18.5856c-38.112-37.7856 4.992-68.8128 14.976-72.4992 10.4208-3.84 3.6288-17.0496-30.1056-16.896-33.7344 0.1536-64.5888 11.6736-103.9104 27.0336-5.76 2.304-11.808 3.9936-17.9904 5.376-35.712-6.912-72.768-8.448-111.4944-3.9936-72.9024 8.2944-131.136 43.4688-173.952 103.5264C54.368 387.7376 42.2528 469.76 57.0944 555.3152c15.552 90.1632 60.6528 164.8128 129.9264 223.1808 71.8464 60.5184 154.5792 90.1632 248.9664 84.48 57.3312-3.3792 121.152-11.2128 193.152-73.4208 18.1632 9.216 37.2288 12.9072 68.832 15.6672 24.3648 2.304 47.808-1.2288 65.952-5.0688 28.4304-6.144 26.4576-33.024 16.1856-37.9392-83.3472-39.6288-65.0544-23.5008-81.6816-36.552 42.36-51.1536 106.1808-104.2992 131.1408-276.48 1.9728-13.6752 0.3072-22.2768 0-33.336-0.1536-6.7584 1.344-9.3696 8.928-10.1376 20.8704-2.4576 41.1456-8.2944 59.7504-18.7392 53.9856-30.1056 75.7824-79.5648 80.928-138.8544 0.768-9.0624-0.1536-18.432-9.5472-23.1936zM499.0544 758.528c-80.7552-64.8144-119.9424-86.1696-136.128-85.248-15.1296 0.9216-12.4032 18.5856-9.0816 30.1056 3.4752 11.3664 8.0256 19.2 14.3808 29.184 4.3776 6.6048 7.4112 16.4352-4.3968 23.808-26.016 16.4352-71.232-5.5296-73.344-6.6048-52.6464-31.6416-96.672-73.4208-127.68-130.56-29.952-54.984-47.328-113.9712-50.208-176.9472-0.768-15.2064 3.6288-20.5776 18.432-23.3472a177.336 177.336 0 0 1 59.1552-1.536c82.4448 12.288 152.64 49.92 211.4688 109.5168 33.5808 33.9456 58.9824 74.496 85.1712 114.1296 27.8208 42.0864 57.7728 82.1712 95.8848 115.0464 13.4592 11.52 24.192 20.2704 34.4784 26.7264-31.0032 3.5328-82.752 4.3008-118.1328-24.2736z m38.7216-254.208c0-6.7584 5.2992-12.1344 11.9664-12.1344 1.5072 0.0288 2.8656 0.2832 4.0656 0.768a12.0384 12.0384 0 0 1 7.7232 11.3664 12.096 12.096 0 0 1-1.9584 6.72 12.0048 12.0048 0 0 1-9.984 5.4144 11.952 11.952 0 0 1-4.5936-0.936 11.976 11.976 0 0 1-5.328-4.488 11.9376 11.9376 0 0 1-1.8912-6.7104z m120.2544 62.976c-7.6992 3.2256-15.4224 5.9904-22.848 6.2976-11.4864 0.6144-24.0384-4.1472-30.84-9.984-10.5936-9.0624-18.1584-14.1312-21.3264-29.952-1.368-6.7584-0.6144-17.2032 0.5952-23.1888 2.7264-12.9072-0.3072-21.2016-9.216-28.728-7.2576-6.144-16.4928-7.8336-26.6304-7.8336-3.7824 0-7.2624-1.6848-9.8304-3.072a9.936 9.936 0 0 1-3.2784-2.5008 9.9168 9.9168 0 0 1-2.0016-3.6048 9.912 9.912 0 0 1-0.384-4.1088c0.1488-1.3776 0.5856-2.712 1.2864-3.912 1.056-2.1552 6.1968-7.3776 7.4112-8.2944 13.7664-7.9872 29.64-5.376 44.3136 0.6144 13.6128 5.6784 23.88 16.128 38.7264 30.8736 15.1296 17.8128 17.856 22.7328 26.4528 36.096 6.8208 10.44 13.0224 21.1968 17.2416 33.48 2.592 7.68-0.7488 13.9824-9.672 17.8224z" fill="#4D6BFE" p-id="4765"></path></svg>