<svg t="1738758412047" class="icon" viewBox="0 0 1024 1024" version="1.1" xmlns="http://www.w3.org/2000/svg" p-id="18162" width="200" height="200"><path d="M0.00896 0h1024v1024H0.00896z" fill="#FFFFFF" p-id="18163"></path><path d="M191.326293 641.962667c6.570667-10.410667-5.12-45.312-5.12-45.312-47.146667-40.448-35.925333 30.208-35.925333 30.208 33.066667 51.413333 41.045333 15.104 41.045333 15.104z m189.781334-30.208s-52.906667 1.621333-41.045334 35.242666c0 0 79.616 18.304 87.210667-15.104 0 0 5.461333-31.402667-46.165333-20.138666z m-210.304-156.032c-43.733333-45.653333 15.36-60.373333 15.36-60.373334 22.656-61.866667-30.72-55.338667-30.72-55.338666-51.029333-9.002667-20.522667 25.173333-20.522667 25.173333-8.789333 34.474667-35.925333 45.269333-35.925333 45.269333-70.741333-14.933333-15.36-65.408-15.36-65.408-2.688-34.304 51.285333-35.242667 51.285333-35.242666 18.176-2.261333 15.36-20.138667 15.36-20.138667-8.917333-39.04-66.645333-20.138667-66.645333-20.138667C52.915627 289.706667 22.067627 365.141333 22.067627 365.141333c-20.309333 37.930667 30.762667 60.416 30.762666 60.416 18.133333 30.421333-30.762667 80.512-30.762666 80.512 2.645333 83.456 51.285333 65.408 51.285333 65.408 4.778667 14.506667 66.688 5.034667 66.688 5.034667-1.408-11.904 46.165333-40.234667 46.165333-40.234667 8.874667-57.472-15.36-80.554667-15.36-80.554666z m-46.165334 85.589333s-76.288 1.28-61.525333-30.208c0 0 17.749333-42.837333 25.6-40.277333 0 0 35.242667-40.32 61.568 10.069333 0 0 10.624 43.264-25.6 60.416zM1.54496 667.136c-10.496 64.853333 35.925333 40.234667 35.925333 40.234667a48.896 48.896 0 0 1 20.48-45.312v-65.408C15.62496 582.826667 1.54496 667.136 1.54496 667.136z m87.210667-50.346667c-15.658667 149.76 35.882667 70.442667 35.882666 70.442667 9.088-126.976-35.882667-70.442667-35.882666-70.442667z m400.042666-236.544c21.333333-37.845333-25.6-70.442667-25.6-70.442666l-30.805333-5.034667c-34.474667-18.090667-97.450667-5.034667-97.450667-5.034667-36.949333 11.52-102.570667 5.034667-102.570666 5.034667-46.976 55.936-5.12 110.72-5.12 110.72v105.685333c-7.936 96.853333-46.165333 145.92-46.165334 145.92 4.266667 60.928 41.002667 25.173333 41.002667 25.173334 25.856-14.378667 35.925333-130.858667 35.925333-130.858667l25.6 10.069333v60.416c13.44 24.32 38.954667 14.165333 41.088 10.069334 2.090667-4.096 0-15.104 0-15.104-16.298667-6.741333-5.12-55.338667-5.12-55.338667-0.853333-26.026667 107.690667-15.104 107.690667-15.104 22.912-55.552-56.448-40.277333-56.448-40.277333-17.28-1.834667-10.24-35.2-10.24-35.2 36.906667-18.773333 80.469333-1.706667 82.048 10.026666 1.578667 11.776 0 166.101333 0 166.101334 14.634667 95.872 51.285333 35.2 51.285333 35.2 8.533333-25.088-15.36-100.650667-15.36-100.650667-14.72-56.576 10.24-211.370667 10.24-211.370667z m-158.976 145.92c-51.84-9.173333-66.688 5.077333-66.688 5.077334-5.333333-75.562667 66.688-45.312 66.688-45.312v40.277333z m112.810667-85.504l-46.165333-5.034666 5.12-25.173334c18.261333-11.221333 15.402667-50.346667 15.402666-50.346666-51.2-29.397333-46.165333 40.277333-46.165333 40.277333-2.133333 56.405333-41.002667 45.269333-41.002667 45.269333H273.374293c-50.218667-34.56-10.24-95.573333-10.24-95.573333l51.285334-10.069333c2.389333-19.285333 76.928-10.069333 76.928-10.069334 46.549333 2.773333 51.285333 35.2 51.285333 35.2v75.52z m410.325333 145.92s-98.816 59.477333-123.093333 85.589334c0 0-74.410667 21.162667-97.450667 25.173333 0 0-64.938667 66.432 61.568 35.2 0 0 68.394667-28.586667 97.450667-60.373333 0 0 85.802667-64.085333 117.973333-90.624 0 0 5.632-55.893333-56.448 5.034666z m169.258667 0c2.005333-73.941333-92.288-110.72-92.288-110.72-8.192-0.298667-71.808-5.034667-71.808-5.034666-48.128-5.290667-30.805333 35.242667-30.805333 35.242666-135.466667 110.549333-210.261333 110.72-210.261334 110.72-64.426667 39.125333 10.24 45.312 10.24 45.312 64.426667 4.266667 241.066667-145.962667 241.066667-145.962666 17.493333-8.96 41.045333 0 41.045333 0-0.725333 21.418667 10.24 30.208 10.24 30.208 101.290667-16.64 46.165333 90.581333 46.165334 90.581333-31.829333 56.490667-107.690667 50.346667-107.690667 50.346667-46.378667-28.586667-41.045333 0-41.045333 0 17.066667 115.072 143.616 20.053333 143.616 20.053333 81.578667-60.928 61.525333-120.746667 61.525333-120.746667z m-164.096-206.336c57.941333-12.586667 15.36-35.2 15.36-35.2-19.029333-12.586667-133.333333 0-133.333333 0-29.226667 22.613333 0 35.2 0 35.2h117.973333zM299.059627 365.141333c-19.498667 20.053333 5.12 55.381333 5.12 55.381334 18.090667 20.138667 30.72 5.034667 30.72 5.034666v-35.242666c-11.306667-37.674667-35.84-25.173333-35.84-25.173334z m312.832 201.344c134.058667-6.485333 189.781333-100.693333 189.781333-100.693333l128.213333-5.034667c43.306667-15.701333 41.045333-40.234667 41.045334-40.234666 11.050667-14.378667 0-65.450667 0-65.450667-4.394667-68.437333-35.882667-80.512-35.882667-80.512-24.874667-5.290667-35.925333-10.069333-35.925333-10.069333-20.266667-7.765333-76.928 0-76.928 0-29.738667-19.114667-97.450667 0-97.450667 0-55.850667 18.688-10.24 45.312-10.24 45.312 209.621333-45.653333 210.261333 25.173333 210.261333 25.173333 20.778667 81.578667-20.48 80.512-20.48 80.512-55.68-2.389333-46.165333 10.069333-46.165333 10.069333-18.901333 2.005333-25.642667-5.034667-25.642667-5.034666-36.864-12.501333-71.850667 10.069333-71.850666 10.069333h-35.882667c-19.2-2.432-25.642667-30.208-25.642667-30.208V319.872c-26.88-42.24-46.165333 5.034667-46.165333 5.034667v105.685333c25.045333 58.581333 92.330667 35.2 92.330667 35.2-12.202667 30.933333-87.210667 55.381333-87.210667 55.381333-20.309333 3.072-51.285333 0-51.285333 0-38.826667 27.648 5.12 45.312 5.12 45.312z" fill="#D81E06" p-id="18164"></path></svg>