<?xml version="1.0" standalone="no"?><!DOCTYPE svg PUBLIC "-//W3C//DTD SVG 1.1//EN" "http://www.w3.org/Graphics/SVG/1.1/DTD/svg11.dtd"><svg t="1706773145750" class="icon" viewBox="0 0 1024 1024" version="1.1" xmlns="http://www.w3.org/2000/svg" p-id="4121" xmlns:xlink="http://www.w3.org/1999/xlink"><path d="M512 0C229.2 0 0 229.2 0 512s229.2 512 512 512 512-229.2 512-512S794.8 0 512 0z m204.8 716.8c0 28.2-22.9 51.2-51.2 51.2H358.4c-28.2 0-51.2-22.9-51.2-51.2V307.2c0-28.2 22.9-51.2 51.2-51.2h307.2c28.2 0 51.2 22.9 51.2 51.2v409.6zM512 409.6L409.6 512l102.4 102.4 102.4-102.4L512 409.6z" fill="#8A8A8A" p-id="4122"></path></svg>
