<?xml version="1.0" standalone="no"?><!DOCTYPE svg PUBLIC "-//W3C//DTD SVG 1.1//EN" "http://www.w3.org/Graphics/SVG/1.1/DTD/svg11.dtd"><svg t="1737644703050" class="icon" viewBox="0 0 1024 1024" version="1.1" xmlns="http://www.w3.org/2000/svg" p-id="17384" xmlns:xlink="http://www.w3.org/1999/xlink" width="200" height="200"><path d="M631.1001 366.364062l9.004176 49.059522 31.779448-31.368963-40.783624-17.690559zM349.428265 452.221535h43.484877v29.568128h-25.291144v6.63396h25.291144v25.463282c0 9.5868 7.574102 17.372765 16.922556 17.372764h52.647951a8.699624 8.699624 0 0 0 8.593692-8.818796v-25.569214l-10.579908 17.015246h-49.946698v-25.463282h36.13588v-6.63396h-36.13588v-29.568128h54.342855l-4.687468 20.815538 28.786882-27.449497-17.928905-20.815538-4.687468 20.815538h-55.839137v-26.54908h36.13588v-6.63396h-36.13588v-18.101043l12.341018-7.243066-29.96537-16.882831v75.40998h-43.484877v-8.448037l-19.690016-12.367501v166.206509s-0.503175 36.202087-16.366416 66.657391c0 0 36.056431-30.163992 36.056432-86.863823v-118.55058zM564.217604 574.519442l19.690016 12.367501V415.423584l-19.690016 12.367501v0.609106h-17.928904v-0.609106l-19.690016-12.367501V586.886943l19.690016-12.367501v-13.095781-6.792857h17.928904v19.888638z m-17.928904-26.522597v-107.109979-5.852715h17.928904v112.962694h-17.928904zM691.586981 580.425123v-6.63396H651.611085c2.86015-11.255221 3.389808-19.160358 3.389807-19.160359l-23.900792-5.733542c-0.662072 9.043901-1.853801 17.319799-3.416291 24.893901h-28.230742v6.63396h26.707977c-13.453299 53.852922-46.795236 68.272846-46.795236 68.272846 44.173432-8.103759 62.68496-43.312738 70.351751-68.272846h41.869422z" fill="#989898" p-id="17385"></path><path d="M619.156324 536.450312h52.740641v0.079449l19.690016 12.367501V410.577218l-19.570843 12.301294h-52.965746l-19.570843-12.301294v138.333286l19.690016-12.367502-0.013241-0.09269z m0-100.423053v-6.528028h52.740641v24.880659h-52.740641v-18.352631z m0 24.999832h52.740641v36.811193h-52.740641v-36.811193z m0 62.406889v-18.961737h52.740641V529.803111h-52.740641v-6.369131zM480.624416 626.280217h-30.759856a3.23091 3.23091 0 0 1-3.191186-3.270635v-78.323096l-16.604762 11.612739v1.814077h-39.658102v-1.814077l-16.604761-11.612739v59.573222s0.715038 30.574477-26.880116 50.674977c0 0 43.484877-22.020509 43.484877-51.734292V564.747262h39.658102v72.337967c0 4.356433 3.442773 7.891896 7.693275 7.891896h47.126272a8.739348 8.739348 0 0 0 5.323057-1.708145c14.327234-10.910944 3.191186-53.19085 3.191187-53.19085 2.052423 32.878487-12.777986 36.202087-12.777987 36.202087zM651.505153 591.177169c15.691102 49.470006 47.775102 53.495403 47.775103 53.495403l11.361152-24.125897c-43.498119 0-59.136255-29.369506-59.136255-29.369506z" fill="#989898" p-id="17386"></path><path d="M660.482847 542.51489l5.879198 31.276273 18.021595-12.777986-23.900793-18.498287z" fill="#989898" p-id="17387"></path></svg>