<?xml version="1.0" standalone="no"?><!DOCTYPE svg PUBLIC "-//W3C//DTD SVG 1.1//EN" "http://www.w3.org/Graphics/SVG/1.1/DTD/svg11.dtd"><svg t="1706773145750" class="icon" viewBox="0 0 1024 1024" version="1.1" xmlns="http://www.w3.org/2000/svg" p-id="4121" xmlns:xlink="http://www.w3.org/1999/xlink"><path d="M512 0C229.2 0 0 229.2 0 512s229.2 512 512 512 512-229.2 512-512S794.8 0 512 0zm256 665.6c0 28.2-22.9 51.2-51.2 51.2H307.2c-28.2 0-51.2-22.9-51.2-51.2 0-28.2 22.9-51.2 51.2-51.2h409.6c28.3 0 51.2 23 51.2 51.2zm-51.2-204.8H307.2c-28.2 0-51.2-22.9-51.2-51.2s22.9-51.2 51.2-51.2h409.6c28.2 0 51.2 22.9 51.2 51.2s-22.9 51.2-51.2 51.2z" fill="#1296DB" p-id="4122"></path><path d="M512 256c-70.7 0-128 57.3-128 128s57.3 128 128 128 128-57.3 128-128-57.3-128-128-128zm0 204.8c-42.4 0-76.8-34.4-76.8-76.8s34.4-76.8 76.8-76.8 76.8 34.4 76.8 76.8-34.4 76.8-76.8 76.8z" fill="#FFB800" p-id="4123"></path></svg>
