<?xml version="1.0" standalone="no"?><!DOCTYPE svg PUBLIC "-//W3C//DTD SVG 1.1//EN" "http://www.w3.org/Graphics/SVG/1.1/DTD/svg11.dtd"><svg t="1737644719841" class="icon" viewBox="0 0 1024 1024" version="1.1" xmlns="http://www.w3.org/2000/svg" p-id="18397" xmlns:xlink="http://www.w3.org/1999/xlink" width="200" height="200"><path d="M512 512m-480 0a480 480 0 1 0 960 0 480 480 0 1 0-960 0Z" fill="#EFEFEF" p-id="18398"></path><path d="M423.136 480.16l85.216 85.44-85.216-85.44z m3.648-4.16l84.704-84.928v170.88l-84.704-85.92z m207.296-205.824v168.48l-122.56 123.296v-170.88l122.56-120.896z m0 361.696l120.64 121.376V391.04l-120.64-120.896v361.696z" fill="#E68000" p-id="18399"></path><path d="M389.152 270.176l-119.68 119.936v364.096l119.68-121.12V270.208z m119.2 116.288l-85.216 85.184-33.984-34.688V270.176l119.2 116.288z m-85.216 93.696l85.216 85.44h-85.216v-85.44z" fill="#327BB0" p-id="18400"></path></svg>